<mxfile host="65bd71144e" scale="2" border="0">
    <diagram id="aBxVE7Zz2lucSPtZCpcN" name="Page-1">
        <mxGraphModel dx="772" dy="339" grid="1" gridSize="10" guides="1" tooltips="1" connect="1" arrows="1" fold="1" page="1" pageScale="1" pageWidth="850" pageHeight="1100" math="0" shadow="0">
            <root>
                <mxCell id="0"/>
                <mxCell id="1" parent="0"/>
                <mxCell id="7" value="Task&amp;nbsp; 100Hz" style="rounded=1;whiteSpace=wrap;html=1;fillColor=#cdeb8b;strokeColor=#36393d;opacity=30;verticalAlign=bottom;" parent="1" vertex="1">
                    <mxGeometry x="190" y="210" width="150" height="120" as="geometry"/>
                </mxCell>
                <mxCell id="8" value="Task 10KHz" style="rounded=1;whiteSpace=wrap;html=1;fillColor=#cce5ff;strokeColor=#36393d;opacity=30;verticalAlign=bottom;" parent="1" vertex="1">
                    <mxGeometry x="520" y="210" width="150" height="120" as="geometry"/>
                </mxCell>
                <mxCell id="9" value="Idle Task" style="rounded=1;whiteSpace=wrap;html=1;fillColor=#ffcc99;strokeColor=#36393d;opacity=30;verticalAlign=bottom;" parent="1" vertex="1">
                    <mxGeometry x="360" y="150" width="150" height="180" as="geometry"/>
                </mxCell>
                <mxCell id="13" style="edgeStyle=none;html=1;exitX=0.5;exitY=0;exitDx=0;exitDy=0;entryX=0.75;entryY=0;entryDx=0;entryDy=0;" parent="1" source="2" target="3" edge="1">
                    <mxGeometry relative="1" as="geometry"/>
                </mxCell>
                <mxCell id="16" style="edgeStyle=none;html=1;exitX=0.5;exitY=1;exitDx=0;exitDy=0;entryX=0.5;entryY=0;entryDx=0;entryDy=0;" edge="1" parent="1" source="2" target="6">
                    <mxGeometry relative="1" as="geometry"/>
                </mxCell>
                <mxCell id="18" style="edgeStyle=none;html=1;exitX=1;exitY=1;exitDx=0;exitDy=0;entryX=0.25;entryY=0;entryDx=0;entryDy=0;" edge="1" parent="1" source="2" target="5">
                    <mxGeometry relative="1" as="geometry"/>
                </mxCell>
                <mxCell id="2" value="MainHandler" style="rounded=1;whiteSpace=wrap;html=1;" parent="1" vertex="1">
                    <mxGeometry x="375" y="170" width="120" height="30" as="geometry"/>
                </mxCell>
                <mxCell id="3" value="LoopHandler&lt;br&gt;(Fixed freq)" style="rounded=1;whiteSpace=wrap;html=1;" parent="1" vertex="1">
                    <mxGeometry x="200" y="245" width="120" height="50" as="geometry"/>
                </mxCell>
                <mxCell id="5" value="LoopHandler&lt;br&gt;(Fixed freq)" style="rounded=1;whiteSpace=wrap;html=1;" parent="1" vertex="1">
                    <mxGeometry x="535" y="245" width="120" height="50" as="geometry"/>
                </mxCell>
                <mxCell id="6" value="LoopHandler&lt;br&gt;(Variable freq)" style="rounded=1;whiteSpace=wrap;html=1;" parent="1" vertex="1">
                    <mxGeometry x="375" y="245" width="120" height="50" as="geometry"/>
                </mxCell>
            </root>
        </mxGraphModel>
    </diagram>
</mxfile>